<svg xmlns="http://www.w3.org/2000/svg" viewBox="233 361 556 46">
  <defs>
    <linearGradient id="letters">
      <stop stop-color="#04a5e5" />
      <stop offset="100%" stop-color="#5ccefc" />
    </linearGradient>
  </defs>
  <g>
    <path
      fill="url(#letters)"
      d="M262.73 361.068h-10.877l-18.61 45.868h10.485l6.159-16.709 7.077-18.289 13.039 34.998h10.943z M329.428 398.68v8.387h-34.27V361.2h33.55v8.387H305.38v29.028l24.047.066zm-17.626-10.353 1.18-8.388h13.498v8.388h-14.678z M379.13 361.002v8.65h-36.76v-8.65h36.76zm-23.59 13.826c4.783-3.8 10.222 0 10.222 0v32.042h-10.287v-32.042h.065z M393.657 406.936h10.288v-45.868h-10.288v45.868zm29.486-45.868v19.265h-11.467l-1.317 8.387h12.784v18.216h10.287v-45.868h-10.287z M485.849 398.68v8.387h-34.27V361.2h33.549v8.387h-23.327v29.028l24.048.066zm-17.626-10.353 1.18-8.388H482.9v8.388h-14.677z M528.735 378.039c3.015 3.8 1.966 10.55-1.376 12.647-1.769 1.114-3.21 1.31-4.652 1.376h-9.894v15.005h-10.288v-45.868h18.74c11.009 0 17.299 4.914 17.299 15.005 0 3.604-.72 6.553-2.096 8.912.13-.983.196-2.228 0-3.604-.132-.917-.328-4.39-3.54-7.601-4.651-4.587-11.27-4.39-12.186-4.39h-7.93v14.022h7.93c4.717 0 7.6-1.638 8.125-5.7l-.132.196z M575.82 379.612c6.814 2.031 14.48 4.39 14.48 14.022 0 8.388-6.749 13.826-17.167 13.826-7.011 0-14.285-2.686-19.593-7.142l3.932-8.256c4.455 3.932 11.008 6.749 15.792 6.749 3.866 0 6.16-1.704 6.16-4.586 0-3.801-4.194-5.046-9.044-6.488-6.683-1.966-14.284-4.193-14.284-13.564 0-8.256 6.684-13.63 17.102-13.63 5.963 0 12.188 1.836 16.775 4.915l-3.867 8.453c-4.652-2.752-10.287-4.652-13.89-4.652-3.343 0-5.309 1.441-5.309 3.866 0 3.67 4.13 4.914 8.846 6.356l.066.131z M606.654 406.936h10.287v-45.868h-10.287v45.868zm29.486-45.868v19.265h-11.467l-1.317 8.387h12.784v18.216h10.287v-45.868H636.14z M698.846 398.68v8.387h-34.27V361.2h33.549v8.387h-23.327v29.028l24.048.066zm-17.626-10.353 1.179-8.388h13.498v8.388H681.22z M744.418 398.025v8.977h-28.962v-45.868h10.287v36.826l18.675.065z M790.76 361.068v8.387h-21.492v37.481H758.98v-45.868h31.78zm-13.957 20.182h12.253v8.387h-13.432l1.179-8.387z"
      aria-label="AETHERSHELF"
    />
    <path
      fill="#eff1f5"
      d="M539.088 406.936H527.49l-3.67-6.749c5.832-.656 8.257-4.783 8.257-4.783l7.011 11.532z"
      class="c3"
      aria-label="rfoot"
    />
  </g>
</svg>
